<svg xmlns="http://www.w3.org/2000/svg" xmlns:xlink="http://www.w3.org/1999/xlink" width="500" zoomAndPan="magnify" viewBox="0 0 375 374.999991" height="500" preserveAspectRatio="xMidYMid meet" version="1.0"><defs><clipPath id="f66f292782"><path d="M 95 300 L 158 300 L 158 363.75 L 95 363.75 Z M 95 300 " clip-rule="nonzero"/></clipPath><clipPath id="16acd4c46c"><path d="M 273 300 L 336 300 L 336 363.75 L 273 363.75 Z M 273 300 " clip-rule="nonzero"/></clipPath></defs><path fill="#ffffff" d="M 370.878906 60.109375 C 367.90625 56.507812 363.476562 54.417969 358.800781 54.417969 L 91.53125 54.417969 L 78.664062 11.203125 C 76.6875 4.558594 70.585938 0.0078125 63.652344 0.0078125 L 15.832031 0.0078125 C 7.179688 0.0078125 0.167969 7.023438 0.167969 15.675781 C 0.167969 24.324219 7.179688 31.335938 15.832031 31.335938 L 51.96875 31.335938 L 110.511719 227.984375 C 104.167969 239.621094 98.148438 256.277344 104.972656 270.230469 C 111.015625 282.585938 124.671875 288.851562 145.550781 288.851562 C 145.929688 288.851562 146.308594 288.835938 146.6875 288.796875 C 148.042969 288.671875 282.996094 276.300781 329.527344 278.9375 C 336.3125 279.296875 342.1875 274.105469 342.574219 267.285156 C 342.960938 260.46875 337.742188 254.625 330.917969 254.246094 C 283.675781 251.582031 156.105469 263.097656 145.003906 264.117188 C 133.554688 264.039062 128.253906 261.523438 127.191406 259.367188 C 126.011719 256.964844 126.851562 252.425781 128.839844 247.292969 C 129.171875 247.273438 129.5 247.269531 129.839844 247.226562 L 334.296875 222.496094 C 341.054688 221.675781 346.511719 216.585938 347.796875 209.910156 L 374.183594 73.054688 C 375.0625 68.460938 373.855469 63.714844 370.878906 60.109375 Z M 257.394531 136.097656 L 193.089844 136.097656 L 193.089844 85.75 L 257.394531 85.75 Z M 120.269531 150.9375 L 178.25 150.9375 L 178.25 209.8125 L 139.199219 214.542969 Z M 193.089844 150.9375 L 257.394531 150.9375 L 257.394531 200.238281 L 193.089844 208.019531 Z M 330.125 136.097656 L 272.234375 136.097656 L 272.234375 85.75 L 339.832031 85.75 Z M 178.25 85.75 L 178.25 136.097656 L 115.847656 136.097656 L 100.859375 85.75 Z M 272.234375 198.445312 L 272.234375 150.9375 L 327.261719 150.9375 L 319.195312 192.761719 Z M 272.234375 198.445312 " fill-opacity="1" fill-rule="nonzero"/><g clip-path="url(#f66f292782)"><path fill="#ffffff" d="M 157.636719 332.222656 C 157.636719 333.25 157.585938 334.273438 157.488281 335.292969 C 157.386719 336.3125 157.238281 337.324219 157.035156 338.332031 C 156.835938 339.335938 156.585938 340.328125 156.289062 341.308594 C 155.992188 342.289062 155.648438 343.253906 155.253906 344.203125 C 154.863281 345.148438 154.425781 346.074219 153.941406 346.976562 C 153.457031 347.882812 152.933594 348.761719 152.363281 349.613281 C 151.792969 350.464844 151.183594 351.289062 150.535156 352.078125 C 149.882812 352.871094 149.195312 353.632812 148.46875 354.355469 C 147.746094 355.082031 146.988281 355.769531 146.195312 356.417969 C 145.402344 357.070312 144.578125 357.679688 143.726562 358.25 C 142.875 358.816406 141.996094 359.34375 141.09375 359.828125 C 140.1875 360.3125 139.261719 360.75 138.316406 361.140625 C 137.371094 361.53125 136.40625 361.878906 135.425781 362.175781 C 134.441406 362.472656 133.449219 362.722656 132.445312 362.921875 C 131.4375 363.121094 130.425781 363.273438 129.40625 363.371094 C 128.386719 363.472656 127.363281 363.523438 126.339844 363.523438 C 125.3125 363.523438 124.289062 363.472656 123.269531 363.371094 C 122.25 363.273438 121.238281 363.121094 120.234375 362.921875 C 119.226562 362.722656 118.234375 362.472656 117.253906 362.175781 C 116.273438 361.878906 115.308594 361.53125 114.359375 361.140625 C 113.414062 360.75 112.488281 360.3125 111.585938 359.828125 C 110.679688 359.34375 109.800781 358.816406 108.949219 358.25 C 108.097656 357.679688 107.273438 357.070312 106.484375 356.417969 C 105.691406 355.769531 104.929688 355.082031 104.207031 354.355469 C 103.480469 353.632812 102.792969 352.871094 102.144531 352.078125 C 101.492188 351.289062 100.882812 350.464844 100.3125 349.613281 C 99.746094 348.761719 99.21875 347.882812 98.734375 346.976562 C 98.253906 346.074219 97.8125 345.148438 97.421875 344.203125 C 97.03125 343.253906 96.683594 342.289062 96.386719 341.308594 C 96.089844 340.328125 95.839844 339.335938 95.640625 338.332031 C 95.441406 337.324219 95.289062 336.3125 95.191406 335.292969 C 95.089844 334.273438 95.039062 333.25 95.039062 332.222656 C 95.039062 331.199219 95.089844 330.175781 95.191406 329.15625 C 95.289062 328.136719 95.441406 327.125 95.640625 326.117188 C 95.839844 325.113281 96.089844 324.121094 96.386719 323.136719 C 96.683594 322.15625 97.03125 321.195312 97.421875 320.246094 C 97.8125 319.300781 98.253906 318.375 98.734375 317.46875 C 99.21875 316.566406 99.746094 315.6875 100.3125 314.835938 C 100.882812 313.984375 101.492188 313.160156 102.144531 312.367188 C 102.792969 311.574219 103.480469 310.816406 104.207031 310.09375 C 104.929688 309.367188 105.691406 308.679688 106.484375 308.03125 C 107.273438 307.378906 108.097656 306.769531 108.949219 306.199219 C 109.800781 305.628906 110.679688 305.105469 111.585938 304.621094 C 112.488281 304.136719 113.414062 303.699219 114.359375 303.308594 C 115.308594 302.914062 116.273438 302.570312 117.253906 302.273438 C 118.234375 301.976562 119.226562 301.726562 120.234375 301.527344 C 121.238281 301.328125 122.25 301.175781 123.269531 301.074219 C 124.289062 300.976562 125.3125 300.925781 126.339844 300.925781 C 127.363281 300.925781 128.386719 300.976562 129.40625 301.074219 C 130.425781 301.175781 131.4375 301.328125 132.445312 301.527344 C 133.449219 301.726562 134.445312 301.976562 135.425781 302.273438 C 136.40625 302.570312 137.371094 302.914062 138.316406 303.308594 C 139.261719 303.699219 140.1875 304.136719 141.09375 304.621094 C 141.996094 305.105469 142.875 305.628906 143.726562 306.199219 C 144.578125 306.769531 145.402344 307.378906 146.195312 308.03125 C 146.988281 308.679688 147.746094 309.367188 148.46875 310.09375 C 149.195312 310.816406 149.882812 311.574219 150.53125 312.367188 C 151.183594 313.160156 151.792969 313.984375 152.363281 314.835938 C 152.933594 315.6875 153.457031 316.566406 153.941406 317.46875 C 154.425781 318.375 154.863281 319.300781 155.253906 320.246094 C 155.648438 321.195312 155.992188 322.15625 156.289062 323.136719 C 156.585938 324.121094 156.835938 325.113281 157.035156 326.117188 C 157.238281 327.125 157.386719 328.136719 157.488281 329.15625 C 157.585938 330.175781 157.636719 331.199219 157.636719 332.222656 Z M 157.636719 332.222656 " fill-opacity="1" fill-rule="nonzero"/></g><g clip-path="url(#16acd4c46c)"><path fill="#ffffff" d="M 335.714844 332.222656 C 335.714844 333.25 335.664062 334.273438 335.5625 335.292969 C 335.464844 336.3125 335.3125 337.324219 335.113281 338.332031 C 334.914062 339.335938 334.664062 340.328125 334.367188 341.308594 C 334.070312 342.289062 333.722656 343.253906 333.332031 344.203125 C 332.941406 345.148438 332.5 346.074219 332.019531 346.976562 C 331.535156 347.882812 331.007812 348.761719 330.441406 349.613281 C 329.871094 350.464844 329.261719 351.289062 328.609375 352.078125 C 327.960938 352.871094 327.273438 353.632812 326.546875 354.355469 C 325.820312 355.082031 325.0625 355.769531 324.269531 356.417969 C 323.480469 357.070312 322.65625 357.679688 321.804688 358.25 C 320.953125 358.816406 320.074219 359.34375 319.167969 359.828125 C 318.265625 360.3125 317.339844 360.75 316.394531 361.140625 C 315.445312 361.53125 314.480469 361.878906 313.5 362.175781 C 312.519531 362.472656 311.527344 362.722656 310.519531 362.921875 C 309.515625 363.121094 308.503906 363.273438 307.484375 363.371094 C 306.464844 363.472656 305.441406 363.523438 304.414062 363.523438 C 303.390625 363.523438 302.367188 363.472656 301.347656 363.371094 C 300.328125 363.273438 299.316406 363.121094 298.308594 362.921875 C 297.304688 362.722656 296.308594 362.472656 295.328125 362.175781 C 294.347656 361.878906 293.382812 361.53125 292.4375 361.140625 C 291.492188 360.75 290.566406 360.3125 289.660156 359.828125 C 288.757812 359.34375 287.878906 358.816406 287.027344 358.25 C 286.175781 357.679688 285.351562 357.070312 284.558594 356.417969 C 283.765625 355.769531 283.007812 355.082031 282.285156 354.355469 C 281.558594 353.632812 280.871094 352.871094 280.21875 352.078125 C 279.570312 351.289062 278.960938 350.464844 278.390625 349.613281 C 277.820312 348.761719 277.296875 347.882812 276.8125 346.976562 C 276.328125 346.074219 275.890625 345.148438 275.5 344.203125 C 275.105469 343.253906 274.761719 342.289062 274.464844 341.308594 C 274.167969 340.328125 273.917969 339.335938 273.71875 338.332031 C 273.515625 337.324219 273.367188 336.3125 273.265625 335.292969 C 273.167969 334.273438 273.117188 333.25 273.117188 332.222656 C 273.117188 331.199219 273.167969 330.175781 273.265625 329.15625 C 273.367188 328.136719 273.515625 327.125 273.71875 326.117188 C 273.917969 325.113281 274.167969 324.121094 274.464844 323.136719 C 274.761719 322.15625 275.105469 321.195312 275.5 320.246094 C 275.890625 319.300781 276.328125 318.375 276.8125 317.46875 C 277.296875 316.566406 277.820312 315.6875 278.390625 314.835938 C 278.960938 313.984375 279.570312 313.160156 280.21875 312.367188 C 280.871094 311.574219 281.558594 310.816406 282.285156 310.09375 C 283.007812 309.367188 283.765625 308.679688 284.558594 308.03125 C 285.351562 307.378906 286.175781 306.769531 287.027344 306.199219 C 287.878906 305.628906 288.757812 305.105469 289.660156 304.621094 C 290.566406 304.136719 291.492188 303.699219 292.4375 303.308594 C 293.382812 302.914062 294.347656 302.570312 295.328125 302.273438 C 296.308594 301.976562 297.304688 301.726562 298.308594 301.527344 C 299.3125 301.328125 300.328125 301.175781 301.347656 301.074219 C 302.367188 300.976562 303.390625 300.925781 304.414062 300.925781 C 305.441406 300.925781 306.464844 300.976562 307.484375 301.074219 C 308.503906 301.175781 309.515625 301.328125 310.519531 301.527344 C 311.527344 301.726562 312.519531 301.976562 313.5 302.273438 C 314.480469 302.570312 315.445312 302.914062 316.394531 303.308594 C 317.339844 303.699219 318.265625 304.136719 319.167969 304.621094 C 320.074219 305.105469 320.953125 305.628906 321.804688 306.199219 C 322.65625 306.769531 323.480469 307.378906 324.269531 308.03125 C 325.0625 308.679688 325.820312 309.367188 326.546875 310.09375 C 327.273438 310.816406 327.960938 311.574219 328.609375 312.367188 C 329.261719 313.160156 329.871094 313.984375 330.441406 314.835938 C 331.007812 315.6875 331.535156 316.566406 332.019531 317.46875 C 332.5 318.375 332.941406 319.300781 333.332031 320.246094 C 333.722656 321.195312 334.070312 322.15625 334.367188 323.136719 C 334.664062 324.121094 334.914062 325.113281 335.113281 326.117188 C 335.3125 327.125 335.464844 328.136719 335.5625 329.15625 C 335.664062 330.175781 335.714844 331.199219 335.714844 332.222656 Z M 335.714844 332.222656 " fill-opacity="1" fill-rule="nonzero"/></g></svg>